<svg xmlns="http://www.w3.org/2000/svg" xmlns:xlink="http://www.w3.org/1999/xlink" width="1920" zoomAndPan="magnify" viewBox="0 0 1440 809.999993" height="1080" preserveAspectRatio="xMidYMid meet" version="1.2"><defs><clipPath id="e31b26c5b2"><path d="M 106 714.097656 L 295 714.097656 L 295 783 L 106 783 Z M 106 714.097656 "/></clipPath><clipPath id="bb67aaf4c1"><path d="M 315 714.097656 L 504 714.097656 L 504 783 L 315 783 Z M 315 714.097656 "/></clipPath><clipPath id="aa21ae4676"><path d="M 0 714.097656 L 87 714.097656 L 87 783 L 0 783 Z M 0 714.097656 "/></clipPath><clipPath id="ac15b0e4d2"><path d="M 523 714.097656 L 713 714.097656 L 713 783 L 523 783 Z M 523 714.097656 "/></clipPath><clipPath id="2f8c11fa06"><path d="M 732 714.097656 L 921 714.097656 L 921 783 L 732 783 Z M 732 714.097656 "/></clipPath><clipPath id="fcef12da45"><path d="M 941 714.097656 L 1130 714.097656 L 1130 783 L 941 783 Z M 941 714.097656 "/></clipPath><clipPath id="6ae89531bf"><path d="M 1150 714.097656 L 1339 714.097656 L 1339 783 L 1150 783 Z M 1150 714.097656 "/></clipPath><clipPath id="1e2f34919a"><path d="M 1358 714.097656 L 1440 714.097656 L 1440 783 L 1358 783 Z M 1358 714.097656 "/></clipPath><clipPath id="0282971bd9"><path d="M 1138 27 L 1325 27 L 1325 94.875 L 1138 94.875 Z M 1138 27 "/></clipPath><clipPath id="523822d64c"><path d="M 932 27 L 1119 27 L 1119 94.875 L 932 94.875 Z M 932 27 "/></clipPath><clipPath id="5b4ad2406f"><path d="M 1345 27 L 1437 27 L 1437 94.875 L 1345 94.875 Z M 1345 27 "/></clipPath><clipPath id="ff6fb3de5a"><path d="M 725 27 L 913 27 L 913 94.875 L 725 94.875 Z M 725 27 "/></clipPath><clipPath id="4c1eccb224"><path d="M 519 27 L 706 27 L 706 94.875 L 519 94.875 Z M 519 27 "/></clipPath><clipPath id="219a5f958b"><path d="M 312 27 L 500 27 L 500 94.875 L 312 94.875 Z M 312 27 "/></clipPath><clipPath id="860581fbd2"><path d="M 106 27 L 293 27 L 293 94.875 L 106 94.875 Z M 106 27 "/></clipPath><clipPath id="551bf4803d"><path d="M 0 27 L 86 27 L 86 94.875 L 0 94.875 Z M 0 27 "/></clipPath></defs><g id="79b8f22d43"><path style=" stroke:none;fill-rule:nonzero;fill:#590072;fill-opacity:1;" d="M 140.996094 742.050781 L 141.25 781.917969 L 155.925781 781.917969 L 155.925781 756.78125 L 175.769531 756.78125 L 175.769531 795.253906 L 16.957031 795.253906 L 16.957031 756.78125 L 36.804688 756.78125 L 36.804688 781.917969 L 51.488281 781.917969 L 51.742188 742.050781 L 2.285156 742.050781 L 2.285156 809.996094 L 190.457031 809.996094 L 190.457031 742.050781 L 140.996094 742.050781 "/><path style=" stroke:none;fill-rule:nonzero;fill:#590072;fill-opacity:1;" d="M 349.753906 742.050781 L 350.007812 781.917969 L 364.679688 781.917969 L 364.679688 756.78125 L 384.527344 756.78125 L 384.527344 795.253906 L 225.710938 795.253906 L 225.710938 756.78125 L 245.558594 756.78125 L 245.558594 781.917969 L 260.242188 781.917969 L 260.496094 742.050781 L 211.039062 742.050781 L 211.039062 809.996094 L 399.210938 809.996094 L 399.210938 742.050781 L 349.753906 742.050781 "/><g clip-rule="nonzero" clip-path="url(#e31b26c5b2)"><path style=" stroke:none;fill-rule:nonzero;fill:#590072;fill-opacity:1;" d="M 245.375 782.023438 L 245.628906 742.15625 L 260.300781 742.15625 L 260.300781 767.304688 L 280.101562 767.304688 L 280.101562 767.292969 L 280.148438 767.292969 L 280.148438 728.820312 L 121.335938 728.820312 L 121.335938 767.292969 L 121.394531 767.292969 L 121.394531 767.304688 L 141.183594 767.304688 L 141.183594 742.15625 L 155.867188 742.15625 L 156.121094 782.023438 L 106.664062 782.023438 L 106.664062 714.101562 L 294.832031 714.101562 L 294.832031 782.023438 L 245.375 782.023438 "/></g><g clip-rule="nonzero" clip-path="url(#bb67aaf4c1)"><path style=" stroke:none;fill-rule:nonzero;fill:#590072;fill-opacity:1;" d="M 454.128906 782.023438 L 454.382812 742.15625 L 469.054688 742.15625 L 469.054688 767.304688 L 488.859375 767.304688 L 488.859375 767.292969 L 488.902344 767.292969 L 488.902344 728.820312 L 330.089844 728.820312 L 330.089844 767.292969 L 330.148438 767.292969 L 330.148438 767.304688 L 349.9375 767.304688 L 349.9375 742.15625 L 364.621094 742.15625 L 364.875 782.023438 L 315.417969 782.023438 L 315.417969 714.101562 L 503.585938 714.101562 L 503.585938 782.023438 L 454.128906 782.023438 "/></g><g clip-rule="nonzero" clip-path="url(#aa21ae4676)"><path style=" stroke:none;fill-rule:nonzero;fill:#590072;fill-opacity:1;" d="M -6 714.101562 L -6 728.820312 L 71.394531 728.820312 L 71.394531 767.292969 L 71.347656 767.292969 L 71.347656 767.304688 L 51.546875 767.304688 L 51.546875 742.15625 L 36.875 742.15625 L 36.621094 782.023438 L 86.078125 782.023438 L 86.078125 714.101562 L -6 714.101562 "/></g><path style=" stroke:none;fill-rule:nonzero;fill:#590072;fill-opacity:1;" d="M 558.207031 742.050781 L 558.460938 781.917969 L 573.132812 781.917969 L 573.132812 756.78125 L 592.980469 756.78125 L 592.980469 795.253906 L 434.179688 795.253906 L 434.179688 756.78125 L 454.015625 756.78125 L 454.015625 781.917969 L 468.699219 781.917969 L 468.953125 742.050781 L 419.496094 742.050781 L 419.496094 809.996094 L 607.664062 809.996094 L 607.664062 742.050781 L 558.207031 742.050781 "/><path style=" stroke:none;fill-rule:nonzero;fill:#590072;fill-opacity:1;" d="M 766.964844 742.050781 L 767.226562 781.917969 L 781.902344 781.917969 L 781.902344 756.78125 L 801.738281 756.78125 L 801.738281 795.253906 L 642.933594 795.253906 L 642.933594 756.78125 L 662.769531 756.78125 L 662.769531 781.917969 L 677.453125 781.917969 L 677.707031 742.050781 L 628.25 742.050781 L 628.25 809.996094 L 816.421875 809.996094 L 816.421875 742.050781 L 766.964844 742.050781 "/><g clip-rule="nonzero" clip-path="url(#ac15b0e4d2)"><path style=" stroke:none;fill-rule:nonzero;fill:#590072;fill-opacity:1;" d="M 662.585938 782.023438 L 662.851562 742.15625 L 677.511719 742.15625 L 677.511719 767.304688 L 697.3125 767.304688 L 697.3125 767.292969 L 697.359375 767.292969 L 697.359375 728.820312 L 538.558594 728.820312 L 538.558594 767.292969 L 538.601562 767.292969 L 538.601562 767.304688 L 558.394531 767.304688 L 558.394531 742.15625 L 573.078125 742.15625 L 573.332031 782.023438 L 523.871094 782.023438 L 523.871094 714.101562 L 712.042969 714.101562 L 712.042969 782.023438 L 662.585938 782.023438 "/></g><g clip-rule="nonzero" clip-path="url(#2f8c11fa06)"><path style=" stroke:none;fill-rule:nonzero;fill:#590072;fill-opacity:1;" d="M 871.339844 782.023438 L 871.605469 742.15625 L 886.277344 742.15625 L 886.277344 767.304688 L 906.066406 767.304688 L 906.066406 767.292969 L 906.125 767.292969 L 906.125 728.820312 L 747.3125 728.820312 L 747.3125 767.292969 L 747.359375 767.292969 L 747.359375 767.304688 L 767.160156 767.304688 L 767.160156 742.15625 L 781.832031 742.15625 L 782.085938 782.023438 L 732.628906 782.023438 L 732.628906 714.101562 L 920.796875 714.101562 L 920.796875 782.023438 L 871.339844 782.023438 "/></g><path style=" stroke:none;fill-rule:nonzero;fill:#590072;fill-opacity:1;" d="M 975.71875 742.050781 L 975.984375 781.917969 L 990.65625 781.917969 L 990.65625 756.78125 L 1010.503906 756.78125 L 1010.503906 795.253906 L 851.6875 795.253906 L 851.6875 756.78125 L 871.535156 756.78125 L 871.535156 781.917969 L 886.210938 781.917969 L 886.460938 742.050781 L 837.003906 742.050781 L 837.003906 809.996094 L 1025.175781 809.996094 L 1025.175781 742.050781 L 975.71875 742.050781 "/><path style=" stroke:none;fill-rule:nonzero;fill:#590072;fill-opacity:1;" d="M 1184.472656 742.050781 L 1184.738281 781.917969 L 1199.410156 781.917969 L 1199.410156 756.78125 L 1219.257812 756.78125 L 1219.257812 795.253906 L 1060.445312 795.253906 L 1060.445312 756.78125 L 1080.292969 756.78125 L 1080.292969 781.917969 L 1094.964844 781.917969 L 1095.21875 742.050781 L 1045.761719 742.050781 L 1045.761719 809.996094 L 1233.929688 809.996094 L 1233.929688 742.050781 L 1184.472656 742.050781 "/><g clip-rule="nonzero" clip-path="url(#fcef12da45)"><path style=" stroke:none;fill-rule:nonzero;fill:#590072;fill-opacity:1;" d="M 1080.097656 782.023438 L 1080.359375 742.15625 L 1095.035156 742.15625 L 1095.035156 767.304688 L 1114.824219 767.304688 L 1114.824219 767.292969 L 1114.878906 767.292969 L 1114.878906 728.820312 L 956.066406 728.820312 L 956.066406 767.292969 L 956.113281 767.292969 L 956.113281 767.304688 L 975.914062 767.304688 L 975.914062 742.15625 L 990.585938 742.15625 L 990.839844 782.023438 L 941.382812 782.023438 L 941.382812 714.101562 L 1129.554688 714.101562 L 1129.554688 782.023438 L 1080.097656 782.023438 "/></g><g clip-rule="nonzero" clip-path="url(#6ae89531bf)"><path style=" stroke:none;fill-rule:nonzero;fill:#590072;fill-opacity:1;" d="M 1288.851562 782.023438 L 1289.117188 742.15625 L 1303.789062 742.15625 L 1303.789062 767.304688 L 1323.578125 767.304688 L 1323.578125 767.292969 L 1323.636719 767.292969 L 1323.636719 728.820312 L 1164.820312 728.820312 L 1164.820312 767.292969 L 1164.867188 767.292969 L 1164.867188 767.304688 L 1184.667969 767.304688 L 1184.667969 742.15625 L 1199.339844 742.15625 L 1199.59375 782.023438 L 1150.136719 782.023438 L 1150.136719 714.101562 L 1338.308594 714.101562 L 1338.308594 782.023438 L 1288.851562 782.023438 "/></g><path style=" stroke:none;fill-rule:nonzero;fill:#590072;fill-opacity:1;" d="M 1393.261719 742.050781 L 1393.527344 781.917969 L 1408.199219 781.917969 L 1408.199219 756.78125 L 1428.046875 756.78125 L 1428.046875 795.253906 L 1269.234375 795.253906 L 1269.234375 756.78125 L 1289.082031 756.78125 L 1289.082031 781.917969 L 1303.753906 781.917969 L 1304.007812 742.050781 L 1254.550781 742.050781 L 1254.550781 809.996094 L 1442.71875 809.996094 L 1442.71875 742.050781 L 1393.261719 742.050781 "/><g clip-rule="nonzero" clip-path="url(#1e2f34919a)"><path style=" stroke:none;fill-rule:nonzero;fill:#590072;fill-opacity:1;" d="M 1393.457031 742.15625 L 1393.457031 767.304688 L 1373.65625 767.304688 L 1373.65625 767.292969 L 1373.613281 767.292969 L 1373.613281 728.820312 L 1451.941406 728.820312 L 1451.941406 714.101562 L 1358.925781 714.101562 L 1358.925781 782.023438 L 1408.386719 782.023438 L 1408.132812 742.15625 L 1393.457031 742.15625 "/></g><path style=" stroke:none;fill-rule:nonzero;fill:#590072;fill-opacity:1;" d="M 1290.925781 67.21875 L 1290.675781 27.777344 L 1276.160156 27.777344 L 1276.160156 52.644531 L 1256.523438 52.644531 L 1256.523438 14.582031 L 1413.648438 14.582031 L 1413.648438 52.644531 L 1394.011719 52.644531 L 1394.011719 27.777344 L 1379.484375 27.777344 L 1379.230469 67.21875 L 1428.164062 67.21875 L 1428.164062 -0.00390625 L 1241.996094 -0.00390625 L 1241.996094 67.21875 L 1290.925781 67.21875 "/><path style=" stroke:none;fill-rule:nonzero;fill:#590072;fill-opacity:1;" d="M 1084.390625 67.21875 L 1084.140625 27.777344 L 1069.621094 27.777344 L 1069.621094 52.644531 L 1049.988281 52.644531 L 1049.988281 14.582031 L 1207.113281 14.582031 L 1207.113281 52.644531 L 1187.476562 52.644531 L 1187.476562 27.777344 L 1172.949219 27.777344 L 1172.695312 67.21875 L 1221.628906 67.21875 L 1221.628906 -0.00390625 L 1035.457031 -0.00390625 L 1035.457031 67.21875 L 1084.390625 67.21875 "/><g clip-rule="nonzero" clip-path="url(#0282971bd9)"><path style=" stroke:none;fill-rule:nonzero;fill:#590072;fill-opacity:1;" d="M 1187.65625 27.671875 L 1187.40625 67.117188 L 1172.890625 67.117188 L 1172.890625 42.234375 L 1153.300781 42.234375 L 1153.300781 42.246094 L 1153.253906 42.246094 L 1153.253906 80.3125 L 1310.378906 80.3125 L 1310.378906 42.246094 L 1310.324219 42.246094 L 1310.324219 42.234375 L 1290.742188 42.234375 L 1290.742188 67.117188 L 1276.214844 67.117188 L 1275.964844 27.671875 L 1324.894531 27.671875 L 1324.894531 94.871094 L 1138.726562 94.871094 L 1138.726562 27.671875 L 1187.65625 27.671875 "/></g><g clip-rule="nonzero" clip-path="url(#523822d64c)"><path style=" stroke:none;fill-rule:nonzero;fill:#590072;fill-opacity:1;" d="M 981.121094 27.671875 L 980.871094 67.117188 L 966.355469 67.117188 L 966.355469 42.234375 L 946.765625 42.234375 L 946.765625 42.246094 L 946.71875 42.246094 L 946.71875 80.3125 L 1103.84375 80.3125 L 1103.84375 42.246094 L 1103.785156 42.246094 L 1103.785156 42.234375 L 1084.207031 42.234375 L 1084.207031 67.117188 L 1069.679688 67.117188 L 1069.429688 27.671875 L 1118.359375 27.671875 L 1118.359375 94.871094 L 932.191406 94.871094 L 932.191406 27.671875 L 981.121094 27.671875 "/></g><g clip-rule="nonzero" clip-path="url(#5b4ad2406f)"><path style=" stroke:none;fill-rule:nonzero;fill:#590072;fill-opacity:1;" d="M 1436.363281 94.871094 L 1436.363281 80.3125 L 1359.789062 80.3125 L 1359.789062 42.246094 L 1359.835938 42.246094 L 1359.835938 42.234375 L 1379.425781 42.234375 L 1379.425781 67.117188 L 1393.941406 67.117188 L 1394.195312 27.671875 L 1345.261719 27.671875 L 1345.261719 94.871094 L 1436.363281 94.871094 "/></g><path style=" stroke:none;fill-rule:nonzero;fill:#590072;fill-opacity:1;" d="M 878.152344 67.21875 L 877.898438 27.777344 L 863.382812 27.777344 L 863.382812 52.644531 L 843.746094 52.644531 L 843.746094 14.582031 L 1000.859375 14.582031 L 1000.859375 52.644531 L 981.234375 52.644531 L 981.234375 27.777344 L 966.707031 27.777344 L 966.457031 67.21875 L 1015.390625 67.21875 L 1015.390625 -0.00390625 L 829.21875 -0.00390625 L 829.21875 67.21875 L 878.152344 67.21875 "/><path style=" stroke:none;fill-rule:nonzero;fill:#590072;fill-opacity:1;" d="M 671.617188 67.21875 L 671.351562 27.777344 L 656.835938 27.777344 L 656.835938 52.644531 L 637.210938 52.644531 L 637.210938 14.582031 L 794.324219 14.582031 L 794.324219 52.644531 L 774.699219 52.644531 L 774.699219 27.777344 L 760.171875 27.777344 L 759.921875 67.21875 L 808.851562 67.21875 L 808.851562 -0.00390625 L 622.683594 -0.00390625 L 622.683594 67.21875 L 671.617188 67.21875 "/><g clip-rule="nonzero" clip-path="url(#ff6fb3de5a)"><path style=" stroke:none;fill-rule:nonzero;fill:#590072;fill-opacity:1;" d="M 774.882812 27.671875 L 774.621094 67.117188 L 760.117188 67.117188 L 760.117188 42.234375 L 740.523438 42.234375 L 740.523438 42.246094 L 740.480469 42.246094 L 740.480469 80.3125 L 897.59375 80.3125 L 897.59375 42.246094 L 897.546875 42.246094 L 897.546875 42.234375 L 877.96875 42.234375 L 877.96875 67.117188 L 863.441406 67.117188 L 863.191406 27.671875 L 912.121094 27.671875 L 912.121094 94.871094 L 725.953125 94.871094 L 725.953125 27.671875 L 774.882812 27.671875 "/></g><g clip-rule="nonzero" clip-path="url(#4c1eccb224)"><path style=" stroke:none;fill-rule:nonzero;fill:#590072;fill-opacity:1;" d="M 568.347656 27.671875 L 568.085938 67.117188 L 553.570312 67.117188 L 553.570312 42.234375 L 533.988281 42.234375 L 533.988281 42.246094 L 533.933594 42.246094 L 533.933594 80.3125 L 691.058594 80.3125 L 691.058594 42.246094 L 691.011719 42.246094 L 691.011719 42.234375 L 671.421875 42.234375 L 671.421875 67.117188 L 656.90625 67.117188 L 656.65625 27.671875 L 705.585938 27.671875 L 705.585938 94.871094 L 519.417969 94.871094 L 519.417969 27.671875 L 568.347656 27.671875 "/></g><path style=" stroke:none;fill-rule:nonzero;fill:#590072;fill-opacity:1;" d="M 465.078125 67.21875 L 464.816406 27.777344 L 450.300781 27.777344 L 450.300781 52.644531 L 430.664062 52.644531 L 430.664062 14.582031 L 587.789062 14.582031 L 587.789062 52.644531 L 568.152344 52.644531 L 568.152344 27.777344 L 553.636719 27.777344 L 553.386719 67.21875 L 602.316406 67.21875 L 602.316406 -0.00390625 L 416.148438 -0.00390625 L 416.148438 67.21875 L 465.078125 67.21875 "/><path style=" stroke:none;fill-rule:nonzero;fill:#590072;fill-opacity:1;" d="M 258.542969 67.21875 L 258.28125 27.777344 L 243.765625 27.777344 L 243.765625 52.644531 L 224.128906 52.644531 L 224.128906 14.582031 L 381.253906 14.582031 L 381.253906 52.644531 L 361.617188 52.644531 L 361.617188 27.777344 L 347.101562 27.777344 L 346.851562 67.21875 L 395.78125 67.21875 L 395.78125 -0.00390625 L 209.613281 -0.00390625 L 209.613281 67.21875 L 258.542969 67.21875 "/><g clip-rule="nonzero" clip-path="url(#219a5f958b)"><path style=" stroke:none;fill-rule:nonzero;fill:#590072;fill-opacity:1;" d="M 361.8125 27.671875 L 361.550781 67.117188 L 347.035156 67.117188 L 347.035156 42.234375 L 327.453125 42.234375 L 327.453125 42.246094 L 327.398438 42.246094 L 327.398438 80.3125 L 484.523438 80.3125 L 484.523438 42.246094 L 484.476562 42.246094 L 484.476562 42.234375 L 464.886719 42.234375 L 464.886719 67.117188 L 450.371094 67.117188 L 450.117188 27.671875 L 499.050781 27.671875 L 499.050781 94.871094 L 312.878906 94.871094 L 312.878906 27.671875 L 361.8125 27.671875 "/></g><g clip-rule="nonzero" clip-path="url(#860581fbd2)"><path style=" stroke:none;fill-rule:nonzero;fill:#590072;fill-opacity:1;" d="M 155.277344 27.671875 L 155.015625 67.117188 L 140.496094 67.117188 L 140.496094 42.234375 L 120.917969 42.234375 L 120.917969 42.246094 L 120.863281 42.246094 L 120.863281 80.3125 L 277.988281 80.3125 L 277.988281 42.246094 L 277.941406 42.246094 L 277.941406 42.234375 L 258.351562 42.234375 L 258.351562 67.117188 L 243.835938 67.117188 L 243.582031 27.671875 L 292.515625 27.671875 L 292.515625 94.871094 L 106.34375 94.871094 L 106.34375 27.671875 L 155.277344 27.671875 "/></g><path style=" stroke:none;fill-rule:nonzero;fill:#590072;fill-opacity:1;" d="M 51.972656 67.21875 L 51.710938 27.777344 L 37.195312 27.777344 L 37.195312 52.644531 L 17.558594 52.644531 L 17.558594 14.582031 L 174.683594 14.582031 L 174.683594 52.644531 L 155.046875 52.644531 L 155.046875 27.777344 L 140.53125 27.777344 L 140.28125 67.21875 L 189.210938 67.21875 L 189.210938 -0.00390625 L 3.042969 -0.00390625 L 3.042969 67.21875 L 51.972656 67.21875 "/><g clip-rule="nonzero" clip-path="url(#551bf4803d)"><path style=" stroke:none;fill-rule:nonzero;fill:#590072;fill-opacity:1;" d="M 51.78125 67.117188 L 51.78125 42.234375 L 71.371094 42.234375 L 71.371094 42.246094 L 71.417969 42.246094 L 71.417969 80.3125 L -6.078125 80.3125 L -6.078125 94.871094 L 85.945312 94.871094 L 85.945312 27.671875 L 37.011719 27.671875 L 37.265625 67.117188 L 51.78125 67.117188 "/></g></g></svg>