<svg xmlns="http://www.w3.org/2000/svg" xmlns:xlink="http://www.w3.org/1999/xlink" width="1920" zoomAndPan="magnify" viewBox="0 0 1440 809.999993" height="1080" preserveAspectRatio="xMidYMid meet" version="1.2"><defs><clipPath id="ab778cede9"><path d="M 1084 23 L 1246 23 L 1246 81.691406 L 1084 81.691406 Z M 1084 23 "/></clipPath><clipPath id="973ffb0a4b"><path d="M 906 23 L 1068 23 L 1068 81.691406 L 906 81.691406 Z M 906 23 "/></clipPath><clipPath id="90798dee4b"><path d="M 1262 23 L 1341 23 L 1341 81.691406 L 1262 81.691406 Z M 1262 23 "/></clipPath><clipPath id="8a9c64df21"><path d="M 729 23 L 890 23 L 890 81.691406 L 729 81.691406 Z M 729 23 "/></clipPath><clipPath id="5be3f2c33a"><path d="M 551 23 L 712 23 L 712 81.691406 L 551 81.691406 Z M 551 23 "/></clipPath><clipPath id="c05a3a6e6d"><path d="M 373 23 L 535 23 L 535 81.691406 L 373 81.691406 Z M 373 23 "/></clipPath><clipPath id="d976efd3b5"><path d="M 195 23 L 357 23 L 357 81.691406 L 195 81.691406 Z M 195 23 "/></clipPath><clipPath id="7a958ea508"><path d="M 99 23 L 179 23 L 179 81.691406 L 99 81.691406 Z M 99 23 "/></clipPath><clipPath id="98db726402"><path d="M 1344.097656 739 L 1413 739 L 1413 810 L 1344.097656 810 Z M 1344.097656 739 "/></clipPath><clipPath id="8b92a762ce"><path d="M 1344.097656 531 L 1413 531 L 1413 720 L 1344.097656 720 Z M 1344.097656 531 "/></clipPath><clipPath id="58327b312e"><path d="M 1344.097656 322 L 1413 322 L 1413 511 L 1344.097656 511 Z M 1344.097656 322 "/></clipPath><clipPath id="6b54dba769"><path d="M 1344.097656 113 L 1413 113 L 1413 302 L 1344.097656 302 Z M 1344.097656 113 "/></clipPath><clipPath id="d4a60c320a"><path d="M 1344.097656 0 L 1413 0 L 1413 94 L 1344.097656 94 Z M 1344.097656 0 "/></clipPath></defs><g id="a415342539"><path style=" stroke:none;fill-rule:nonzero;fill:#590072;fill-opacity:1;" d="M 224.230469 752.808594 L 224.445312 786.765625 L 236.941406 786.765625 L 236.941406 765.355469 L 253.847656 765.355469 L 253.847656 798.125 L 118.578125 798.125 L 118.578125 765.355469 L 135.480469 765.355469 L 135.480469 786.765625 L 147.988281 786.765625 L 148.203125 752.808594 L 106.078125 752.808594 L 106.078125 810.679688 L 266.355469 810.679688 L 266.355469 752.808594 L 224.230469 752.808594 "/><path style=" stroke:none;fill-rule:nonzero;fill:#590072;fill-opacity:1;" d="M 402.039062 752.808594 L 402.253906 786.765625 L 414.75 786.765625 L 414.75 765.355469 L 431.65625 765.355469 L 431.65625 798.125 L 296.386719 798.125 L 296.386719 765.355469 L 313.289062 765.355469 L 313.289062 786.765625 L 325.796875 786.765625 L 326.015625 752.808594 L 283.886719 752.808594 L 283.886719 810.679688 L 444.164062 810.679688 L 444.164062 752.808594 L 402.039062 752.808594 "/><path style=" stroke:none;fill-rule:nonzero;fill:#590072;fill-opacity:1;" d="M 313.132812 786.855469 L 313.351562 752.898438 L 325.847656 752.898438 L 325.847656 774.316406 L 342.714844 774.316406 L 342.714844 774.308594 L 342.753906 774.308594 L 342.753906 741.539062 L 207.480469 741.539062 L 207.480469 774.308594 L 207.53125 774.308594 L 207.53125 774.316406 L 224.386719 774.316406 L 224.386719 752.898438 L 236.894531 752.898438 L 237.109375 786.855469 L 194.984375 786.855469 L 194.984375 729.003906 L 355.257812 729.003906 L 355.257812 786.855469 L 313.132812 786.855469 "/><path style=" stroke:none;fill-rule:nonzero;fill:#590072;fill-opacity:1;" d="M 490.941406 786.855469 L 491.160156 752.898438 L 503.65625 752.898438 L 503.65625 774.316406 L 520.523438 774.316406 L 520.523438 774.308594 L 520.5625 774.308594 L 520.5625 741.539062 L 385.289062 741.539062 L 385.289062 774.308594 L 385.339844 774.308594 L 385.339844 774.316406 L 402.195312 774.316406 L 402.195312 752.898438 L 414.703125 752.898438 L 414.917969 786.855469 L 372.792969 786.855469 L 372.792969 729.003906 L 533.070312 729.003906 L 533.070312 786.855469 L 490.941406 786.855469 "/><path style=" stroke:none;fill-rule:nonzero;fill:#590072;fill-opacity:1;" d="M 99.019531 729.003906 L 99.019531 741.539062 L 164.941406 741.539062 L 164.941406 774.308594 L 164.902344 774.308594 L 164.902344 774.316406 L 148.039062 774.316406 L 148.039062 752.898438 L 135.539062 752.898438 L 135.324219 786.855469 L 177.449219 786.855469 L 177.449219 729.003906 L 99.019531 729.003906 "/><path style=" stroke:none;fill-rule:nonzero;fill:#590072;fill-opacity:1;" d="M 579.59375 752.808594 L 579.808594 786.765625 L 592.304688 786.765625 L 592.304688 765.355469 L 609.210938 765.355469 L 609.210938 798.125 L 473.949219 798.125 L 473.949219 765.355469 L 490.84375 765.355469 L 490.84375 786.765625 L 503.351562 786.765625 L 503.566406 752.808594 L 461.441406 752.808594 L 461.441406 810.679688 L 621.71875 810.679688 L 621.71875 752.808594 L 579.59375 752.808594 "/><path style=" stroke:none;fill-rule:nonzero;fill:#590072;fill-opacity:1;" d="M 757.402344 752.808594 L 757.628906 786.765625 L 770.125 786.765625 L 770.125 765.355469 L 787.019531 765.355469 L 787.019531 798.125 L 651.757812 798.125 L 651.757812 765.355469 L 668.652344 765.355469 L 668.652344 786.765625 L 681.160156 786.765625 L 681.378906 752.808594 L 639.25 752.808594 L 639.25 810.679688 L 799.527344 810.679688 L 799.527344 752.808594 L 757.402344 752.808594 "/><path style=" stroke:none;fill-rule:nonzero;fill:#590072;fill-opacity:1;" d="M 668.496094 786.855469 L 668.722656 752.898438 L 681.210938 752.898438 L 681.210938 774.316406 L 698.078125 774.316406 L 698.078125 774.308594 L 698.117188 774.308594 L 698.117188 741.539062 L 562.855469 741.539062 L 562.855469 774.308594 L 562.894531 774.308594 L 562.894531 774.316406 L 579.75 774.316406 L 579.75 752.898438 L 592.257812 752.898438 L 592.472656 786.855469 L 550.347656 786.855469 L 550.347656 729.003906 L 710.621094 729.003906 L 710.621094 786.855469 L 668.496094 786.855469 "/><path style=" stroke:none;fill-rule:nonzero;fill:#590072;fill-opacity:1;" d="M 846.304688 786.855469 L 846.53125 752.898438 L 859.027344 752.898438 L 859.027344 774.316406 L 875.886719 774.316406 L 875.886719 774.308594 L 875.933594 774.308594 L 875.933594 741.539062 L 740.664062 741.539062 L 740.664062 774.308594 L 740.703125 774.308594 L 740.703125 774.316406 L 757.570312 774.316406 L 757.570312 752.898438 L 770.066406 752.898438 L 770.28125 786.855469 L 728.15625 786.855469 L 728.15625 729.003906 L 888.433594 729.003906 L 888.433594 786.855469 L 846.304688 786.855469 "/><path style=" stroke:none;fill-rule:nonzero;fill:#590072;fill-opacity:1;" d="M 935.210938 752.808594 L 935.4375 786.765625 L 947.933594 786.765625 L 947.933594 765.355469 L 964.839844 765.355469 L 964.839844 798.125 L 829.566406 798.125 L 829.566406 765.355469 L 846.472656 765.355469 L 846.472656 786.765625 L 858.96875 786.765625 L 859.1875 752.808594 L 817.0625 752.808594 L 817.0625 810.679688 L 977.335938 810.679688 L 977.335938 752.808594 L 935.210938 752.808594 "/><path style=" stroke:none;fill-rule:nonzero;fill:#590072;fill-opacity:1;" d="M 1113.019531 752.808594 L 1113.246094 786.765625 L 1125.742188 786.765625 L 1125.742188 765.355469 L 1142.648438 765.355469 L 1142.648438 798.125 L 1007.378906 798.125 L 1007.378906 765.355469 L 1024.28125 765.355469 L 1024.28125 786.765625 L 1036.78125 786.765625 L 1036.996094 752.808594 L 994.871094 752.808594 L 994.871094 810.679688 L 1155.144531 810.679688 L 1155.144531 752.808594 L 1113.019531 752.808594 "/><path style=" stroke:none;fill-rule:nonzero;fill:#590072;fill-opacity:1;" d="M 1024.117188 786.855469 L 1024.339844 752.898438 L 1036.839844 752.898438 L 1036.839844 774.316406 L 1053.695312 774.316406 L 1053.695312 774.308594 L 1053.742188 774.308594 L 1053.742188 741.539062 L 918.472656 741.539062 L 918.472656 774.308594 L 918.511719 774.308594 L 918.511719 774.316406 L 935.378906 774.316406 L 935.378906 752.898438 L 947.875 752.898438 L 948.089844 786.855469 L 905.964844 786.855469 L 905.964844 729.003906 L 1066.242188 729.003906 L 1066.242188 786.855469 L 1024.117188 786.855469 "/><path style=" stroke:none;fill-rule:nonzero;fill:#590072;fill-opacity:1;" d="M 1201.925781 786.855469 L 1202.148438 752.898438 L 1214.648438 752.898438 L 1214.648438 774.316406 L 1231.503906 774.316406 L 1231.503906 774.308594 L 1231.554688 774.308594 L 1231.554688 741.539062 L 1096.28125 741.539062 L 1096.28125 774.308594 L 1096.320312 774.308594 L 1096.320312 774.316406 L 1113.1875 774.316406 L 1113.1875 752.898438 L 1125.683594 752.898438 L 1125.898438 786.855469 L 1083.773438 786.855469 L 1083.773438 729.003906 L 1244.050781 729.003906 L 1244.050781 786.855469 L 1201.925781 786.855469 "/><path style=" stroke:none;fill-rule:nonzero;fill:#590072;fill-opacity:1;" d="M 1290.859375 752.808594 L 1291.085938 786.765625 L 1303.582031 786.765625 L 1303.582031 765.355469 L 1320.488281 765.355469 L 1320.488281 798.125 L 1185.214844 798.125 L 1185.214844 765.355469 L 1202.121094 765.355469 L 1202.121094 786.765625 L 1214.617188 786.765625 L 1214.835938 752.808594 L 1172.707031 752.808594 L 1172.707031 810.679688 L 1332.984375 810.679688 L 1332.984375 752.808594 L 1290.859375 752.808594 "/><path style=" stroke:none;fill-rule:nonzero;fill:#590072;fill-opacity:1;" d="M 1291.027344 752.898438 L 1291.027344 774.316406 L 1274.160156 774.316406 L 1274.160156 774.308594 L 1274.121094 774.308594 L 1274.121094 741.539062 L 1340.835938 741.539062 L 1340.835938 729.003906 L 1261.613281 729.003906 L 1261.613281 786.855469 L 1303.738281 786.855469 L 1303.523438 752.898438 L 1291.027344 752.898438 "/><path style=" stroke:none;fill-rule:nonzero;fill:#590072;fill-opacity:1;" d="M 1215.761719 57.882812 L 1215.546875 23.925781 L 1203.046875 23.925781 L 1203.046875 45.335938 L 1186.144531 45.335938 L 1186.144531 12.566406 L 1321.414062 12.566406 L 1321.414062 45.335938 L 1304.507812 45.335938 L 1304.507812 23.925781 L 1292.003906 23.925781 L 1291.785156 57.882812 L 1333.910156 57.882812 L 1333.910156 0.0117188 L 1173.636719 0.0117188 L 1173.636719 57.882812 L 1215.761719 57.882812 "/><path style=" stroke:none;fill-rule:nonzero;fill:#590072;fill-opacity:1;" d="M 1037.953125 57.882812 L 1037.738281 23.925781 L 1025.238281 23.925781 L 1025.238281 45.335938 L 1008.335938 45.335938 L 1008.335938 12.566406 L 1143.605469 12.566406 L 1143.605469 45.335938 L 1126.699219 45.335938 L 1126.699219 23.925781 L 1114.191406 23.925781 L 1113.976562 57.882812 L 1156.101562 57.882812 L 1156.101562 0.0117188 L 995.828125 0.0117188 L 995.828125 57.882812 L 1037.953125 57.882812 "/><g clip-rule="nonzero" clip-path="url(#ab778cede9)"><path style=" stroke:none;fill-rule:nonzero;fill:#590072;fill-opacity:1;" d="M 1126.855469 23.835938 L 1126.640625 57.792969 L 1114.144531 57.792969 L 1114.144531 36.375 L 1097.277344 36.375 L 1097.277344 36.382812 L 1097.238281 36.382812 L 1097.238281 69.152344 L 1232.511719 69.152344 L 1232.511719 36.382812 L 1232.460938 36.382812 L 1232.460938 36.375 L 1215.605469 36.375 L 1215.605469 57.792969 L 1203.097656 57.792969 L 1202.882812 23.835938 L 1245.007812 23.835938 L 1245.007812 81.6875 L 1084.730469 81.6875 L 1084.730469 23.835938 L 1126.855469 23.835938 "/></g><g clip-rule="nonzero" clip-path="url(#973ffb0a4b)"><path style=" stroke:none;fill-rule:nonzero;fill:#590072;fill-opacity:1;" d="M 949.046875 23.835938 L 948.832031 57.792969 L 936.335938 57.792969 L 936.335938 36.375 L 919.46875 36.375 L 919.46875 36.382812 L 919.429688 36.382812 L 919.429688 69.152344 L 1054.699219 69.152344 L 1054.699219 36.382812 L 1054.652344 36.382812 L 1054.652344 36.375 L 1037.796875 36.375 L 1037.796875 57.792969 L 1025.289062 57.792969 L 1025.074219 23.835938 L 1067.199219 23.835938 L 1067.199219 81.6875 L 906.921875 81.6875 L 906.921875 23.835938 L 949.046875 23.835938 "/></g><g clip-rule="nonzero" clip-path="url(#90798dee4b)"><path style=" stroke:none;fill-rule:nonzero;fill:#590072;fill-opacity:1;" d="M 1340.96875 81.6875 L 1340.96875 69.152344 L 1275.046875 69.152344 L 1275.046875 36.382812 L 1275.085938 36.382812 L 1275.085938 36.375 L 1291.953125 36.375 L 1291.953125 57.792969 L 1304.449219 57.792969 L 1304.667969 23.835938 L 1262.539062 23.835938 L 1262.539062 81.6875 L 1340.96875 81.6875 "/></g><path style=" stroke:none;fill-rule:nonzero;fill:#590072;fill-opacity:1;" d="M 860.398438 57.882812 L 860.183594 23.925781 L 847.6875 23.925781 L 847.6875 45.335938 L 830.78125 45.335938 L 830.78125 12.566406 L 966.042969 12.566406 L 966.042969 45.335938 L 949.144531 45.335938 L 949.144531 23.925781 L 936.640625 23.925781 L 936.421875 57.882812 L 978.550781 57.882812 L 978.550781 0.0117188 L 818.273438 0.0117188 L 818.273438 57.882812 L 860.398438 57.882812 "/><path style=" stroke:none;fill-rule:nonzero;fill:#590072;fill-opacity:1;" d="M 682.589844 57.882812 L 682.363281 23.925781 L 669.867188 23.925781 L 669.867188 45.335938 L 652.972656 45.335938 L 652.972656 12.566406 L 788.234375 12.566406 L 788.234375 45.335938 L 771.335938 45.335938 L 771.335938 23.925781 L 758.832031 23.925781 L 758.613281 57.882812 L 800.738281 57.882812 L 800.738281 0.0117188 L 640.464844 0.0117188 L 640.464844 57.882812 L 682.589844 57.882812 "/><g clip-rule="nonzero" clip-path="url(#8a9c64df21)"><path style=" stroke:none;fill-rule:nonzero;fill:#590072;fill-opacity:1;" d="M 771.496094 23.835938 L 771.269531 57.792969 L 758.78125 57.792969 L 758.78125 36.375 L 741.914062 36.375 L 741.914062 36.382812 L 741.875 36.382812 L 741.875 69.152344 L 877.136719 69.152344 L 877.136719 36.382812 L 877.097656 36.382812 L 877.097656 36.375 L 860.242188 36.375 L 860.242188 57.792969 L 847.734375 57.792969 L 847.519531 23.835938 L 889.644531 23.835938 L 889.644531 81.6875 L 729.367188 81.6875 L 729.367188 23.835938 L 771.496094 23.835938 "/></g><g clip-rule="nonzero" clip-path="url(#5be3f2c33a)"><path style=" stroke:none;fill-rule:nonzero;fill:#590072;fill-opacity:1;" d="M 593.683594 23.835938 L 593.460938 57.792969 L 580.960938 57.792969 L 580.960938 36.375 L 564.105469 36.375 L 564.105469 36.382812 L 564.058594 36.382812 L 564.058594 69.152344 L 699.328125 69.152344 L 699.328125 36.382812 L 699.289062 36.382812 L 699.289062 36.375 L 682.421875 36.375 L 682.421875 57.792969 L 669.925781 57.792969 L 669.710938 23.835938 L 711.835938 23.835938 L 711.835938 81.6875 L 551.558594 81.6875 L 551.558594 23.835938 L 593.683594 23.835938 "/></g><path style=" stroke:none;fill-rule:nonzero;fill:#590072;fill-opacity:1;" d="M 504.78125 57.882812 L 504.554688 23.925781 L 492.058594 23.925781 L 492.058594 45.335938 L 475.152344 45.335938 L 475.152344 12.566406 L 610.421875 12.566406 L 610.421875 45.335938 L 593.519531 45.335938 L 593.519531 23.925781 L 581.019531 23.925781 L 580.804688 57.882812 L 622.929688 57.882812 L 622.929688 0.0117188 L 462.65625 0.0117188 L 462.65625 57.882812 L 504.78125 57.882812 "/><path style=" stroke:none;fill-rule:nonzero;fill:#590072;fill-opacity:1;" d="M 326.972656 57.882812 L 326.746094 23.925781 L 314.25 23.925781 L 314.25 45.335938 L 297.34375 45.335938 L 297.34375 12.566406 L 432.613281 12.566406 L 432.613281 45.335938 L 415.710938 45.335938 L 415.710938 23.925781 L 403.210938 23.925781 L 402.996094 57.882812 L 445.121094 57.882812 L 445.121094 0.0117188 L 284.847656 0.0117188 L 284.847656 57.882812 L 326.972656 57.882812 "/><g clip-rule="nonzero" clip-path="url(#c05a3a6e6d)"><path style=" stroke:none;fill-rule:nonzero;fill:#590072;fill-opacity:1;" d="M 415.875 23.835938 L 415.648438 57.792969 L 403.152344 57.792969 L 403.152344 36.375 L 386.296875 36.375 L 386.296875 36.382812 L 386.246094 36.382812 L 386.246094 69.152344 L 521.519531 69.152344 L 521.519531 36.382812 L 521.480469 36.382812 L 521.480469 36.375 L 504.613281 36.375 L 504.613281 57.792969 L 492.117188 57.792969 L 491.898438 23.835938 L 534.027344 23.835938 L 534.027344 81.6875 L 373.75 81.6875 L 373.75 23.835938 L 415.875 23.835938 "/></g><g clip-rule="nonzero" clip-path="url(#d976efd3b5)"><path style=" stroke:none;fill-rule:nonzero;fill:#590072;fill-opacity:1;" d="M 238.066406 23.835938 L 237.839844 57.792969 L 225.34375 57.792969 L 225.34375 36.375 L 208.488281 36.375 L 208.488281 36.382812 L 208.4375 36.382812 L 208.4375 69.152344 L 343.710938 69.152344 L 343.710938 36.382812 L 343.671875 36.382812 L 343.671875 36.375 L 326.804688 36.375 L 326.804688 57.792969 L 314.308594 57.792969 L 314.089844 23.835938 L 356.214844 23.835938 L 356.214844 81.6875 L 195.941406 81.6875 L 195.941406 23.835938 L 238.066406 23.835938 "/></g><path style=" stroke:none;fill-rule:nonzero;fill:#590072;fill-opacity:1;" d="M 149.132812 57.882812 L 148.90625 23.925781 L 136.410156 23.925781 L 136.410156 45.335938 L 119.503906 45.335938 L 119.503906 12.566406 L 254.777344 12.566406 L 254.777344 45.335938 L 237.871094 45.335938 L 237.871094 23.925781 L 225.375 23.925781 L 225.15625 57.882812 L 267.28125 57.882812 L 267.28125 0.0117188 L 107.007812 0.0117188 L 107.007812 57.882812 L 149.132812 57.882812 "/><g clip-rule="nonzero" clip-path="url(#7a958ea508)"><path style=" stroke:none;fill-rule:nonzero;fill:#590072;fill-opacity:1;" d="M 148.964844 57.792969 L 148.964844 36.375 L 165.832031 36.375 L 165.832031 36.382812 L 165.871094 36.382812 L 165.871094 69.152344 L 99.152344 69.152344 L 99.152344 81.6875 L 178.378906 81.6875 L 178.378906 23.835938 L 136.253906 23.835938 L 136.46875 57.792969 L 148.964844 57.792969 "/></g><path style=" stroke:none;fill-rule:nonzero;fill:#590072;fill-opacity:1;" d="M 1372.050781 684.96875 L 1411.917969 684.703125 L 1411.917969 670.03125 L 1386.78125 670.03125 L 1386.78125 650.195312 L 1425.253906 650.195312 L 1425.253906 809 L 1386.78125 809 L 1386.78125 789.164062 L 1411.917969 789.164062 L 1411.917969 774.480469 L 1372.050781 774.226562 L 1372.050781 823.683594 L 1439.996094 823.683594 L 1439.996094 635.511719 L 1372.050781 635.511719 L 1372.050781 684.96875 "/><g clip-rule="nonzero" clip-path="url(#98db726402)"><path style=" stroke:none;fill-rule:nonzero;fill:#590072;fill-opacity:1;" d="M 1412.023438 789.347656 L 1372.152344 789.082031 L 1372.152344 774.421875 L 1397.304688 774.421875 L 1397.304688 754.621094 L 1397.292969 754.621094 L 1397.292969 754.574219 L 1358.820312 754.574219 L 1358.820312 913.375 L 1397.292969 913.375 L 1397.292969 913.332031 L 1397.304688 913.332031 L 1397.304688 893.539062 L 1372.152344 893.539062 L 1372.152344 878.855469 L 1412.023438 878.601562 L 1412.023438 928.058594 L 1344.101562 928.058594 L 1344.101562 739.890625 L 1412.023438 739.890625 L 1412.023438 789.347656 "/></g><g clip-rule="nonzero" clip-path="url(#8b92a762ce)"><path style=" stroke:none;fill-rule:nonzero;fill:#590072;fill-opacity:1;" d="M 1412.023438 580.59375 L 1372.152344 580.328125 L 1372.152344 565.65625 L 1397.304688 565.65625 L 1397.304688 545.867188 L 1397.292969 545.867188 L 1397.292969 545.808594 L 1358.820312 545.808594 L 1358.820312 704.621094 L 1397.292969 704.621094 L 1397.292969 704.574219 L 1397.304688 704.574219 L 1397.304688 684.773438 L 1372.152344 684.773438 L 1372.152344 670.101562 L 1412.023438 669.847656 L 1412.023438 719.304688 L 1344.101562 719.304688 L 1344.101562 531.136719 L 1412.023438 531.136719 L 1412.023438 580.59375 "/></g><path style=" stroke:none;fill-rule:nonzero;fill:#590072;fill-opacity:1;" d="M 1372.050781 476.214844 L 1411.917969 475.949219 L 1411.917969 461.277344 L 1386.78125 461.277344 L 1386.78125 441.429688 L 1425.253906 441.429688 L 1425.253906 600.242188 L 1386.78125 600.242188 L 1386.78125 580.398438 L 1411.917969 580.398438 L 1411.917969 565.722656 L 1372.050781 565.472656 L 1372.050781 614.929688 L 1439.996094 614.929688 L 1439.996094 426.757812 L 1372.050781 426.757812 L 1372.050781 476.214844 "/><path style=" stroke:none;fill-rule:nonzero;fill:#590072;fill-opacity:1;" d="M 1372.050781 267.460938 L 1411.917969 267.195312 L 1411.917969 252.523438 L 1386.78125 252.523438 L 1386.78125 232.675781 L 1425.253906 232.675781 L 1425.253906 391.488281 L 1386.78125 391.488281 L 1386.78125 371.640625 L 1411.917969 371.640625 L 1411.917969 356.96875 L 1372.050781 356.714844 L 1372.050781 406.171875 L 1439.996094 406.171875 L 1439.996094 218.003906 L 1372.050781 218.003906 L 1372.050781 267.460938 "/><g clip-rule="nonzero" clip-path="url(#58327b312e)"><path style=" stroke:none;fill-rule:nonzero;fill:#590072;fill-opacity:1;" d="M 1412.023438 371.835938 L 1372.152344 371.574219 L 1372.152344 356.898438 L 1397.304688 356.898438 L 1397.304688 337.109375 L 1397.292969 337.109375 L 1397.292969 337.054688 L 1358.820312 337.054688 L 1358.820312 495.867188 L 1397.292969 495.867188 L 1397.292969 495.820312 L 1397.304688 495.820312 L 1397.304688 476.019531 L 1372.152344 476.019531 L 1372.152344 461.347656 L 1412.023438 461.09375 L 1412.023438 510.550781 L 1344.101562 510.550781 L 1344.101562 322.378906 L 1412.023438 322.378906 L 1412.023438 371.835938 "/></g><g clip-rule="nonzero" clip-path="url(#6b54dba769)"><path style=" stroke:none;fill-rule:nonzero;fill:#590072;fill-opacity:1;" d="M 1412.023438 163.082031 L 1372.152344 162.816406 L 1372.152344 148.144531 L 1397.304688 148.144531 L 1397.304688 128.355469 L 1397.292969 128.355469 L 1397.292969 128.296875 L 1358.820312 128.296875 L 1358.820312 287.113281 L 1397.292969 287.113281 L 1397.292969 287.066406 L 1397.304688 287.066406 L 1397.304688 267.265625 L 1372.152344 267.265625 L 1372.152344 252.59375 L 1412.023438 252.339844 L 1412.023438 301.796875 L 1344.101562 301.796875 L 1344.101562 113.625 L 1412.023438 113.625 L 1412.023438 163.082031 "/></g><path style=" stroke:none;fill-rule:nonzero;fill:#590072;fill-opacity:1;" d="M 1372.050781 58.671875 L 1411.917969 58.40625 L 1411.917969 43.734375 L 1386.78125 43.734375 L 1386.78125 23.886719 L 1425.253906 23.886719 L 1425.253906 182.699219 L 1386.78125 182.699219 L 1386.78125 162.851562 L 1411.917969 162.851562 L 1411.917969 148.179688 L 1372.050781 147.925781 L 1372.050781 197.382812 L 1439.996094 197.382812 L 1439.996094 9.214844 L 1372.050781 9.214844 L 1372.050781 58.671875 "/><g clip-rule="nonzero" clip-path="url(#d4a60c320a)"><path style=" stroke:none;fill-rule:nonzero;fill:#590072;fill-opacity:1;" d="M 1372.152344 58.472656 L 1397.304688 58.472656 L 1397.304688 78.277344 L 1397.292969 78.277344 L 1397.292969 78.320312 L 1358.820312 78.320312 L 1358.820312 -0.0078125 L 1344.101562 -0.0078125 L 1344.101562 93.003906 L 1412.023438 93.003906 L 1412.023438 43.546875 L 1372.152344 43.800781 L 1372.152344 58.472656 "/></g><path style=" stroke:none;fill-rule:nonzero;fill:#590072;fill-opacity:1;" d="M 27.953125 684.96875 L 67.820312 684.703125 L 67.820312 670.03125 L 42.683594 670.03125 L 42.683594 650.195312 L 81.15625 650.195312 L 81.15625 809 L 42.683594 809 L 42.683594 789.164062 L 67.820312 789.164062 L 67.820312 774.480469 L 27.953125 774.226562 L 27.953125 823.683594 L 95.898438 823.683594 L 95.898438 635.511719 L 27.953125 635.511719 L 27.953125 684.96875 "/><path style=" stroke:none;fill-rule:nonzero;fill:#590072;fill-opacity:1;" d="M 67.925781 789.347656 L 28.054688 789.082031 L 28.054688 774.421875 L 53.207031 774.421875 L 53.207031 754.621094 L 53.195312 754.621094 L 53.195312 754.574219 L 14.722656 754.574219 L 14.722656 913.375 L 53.195312 913.375 L 53.195312 913.332031 L 53.207031 913.332031 L 53.207031 893.539062 L 28.054688 893.539062 L 28.054688 878.855469 L 67.925781 878.601562 L 67.925781 928.058594 L 0.00390625 928.058594 L 0.00390625 739.890625 L 67.925781 739.890625 L 67.925781 789.347656 "/><path style=" stroke:none;fill-rule:nonzero;fill:#590072;fill-opacity:1;" d="M 67.925781 580.59375 L 28.054688 580.328125 L 28.054688 565.65625 L 53.207031 565.65625 L 53.207031 545.867188 L 53.195312 545.867188 L 53.195312 545.808594 L 14.722656 545.808594 L 14.722656 704.621094 L 53.195312 704.621094 L 53.195312 704.574219 L 53.207031 704.574219 L 53.207031 684.773438 L 28.054688 684.773438 L 28.054688 670.101562 L 67.925781 669.847656 L 67.925781 719.304688 L 0.00390625 719.304688 L 0.00390625 531.136719 L 67.925781 531.136719 L 67.925781 580.59375 "/><path style=" stroke:none;fill-rule:nonzero;fill:#590072;fill-opacity:1;" d="M 27.953125 476.214844 L 67.820312 475.949219 L 67.820312 461.277344 L 42.683594 461.277344 L 42.683594 441.429688 L 81.15625 441.429688 L 81.15625 600.242188 L 42.683594 600.242188 L 42.683594 580.398438 L 67.820312 580.398438 L 67.820312 565.722656 L 27.953125 565.472656 L 27.953125 614.929688 L 95.898438 614.929688 L 95.898438 426.757812 L 27.953125 426.757812 L 27.953125 476.214844 "/><path style=" stroke:none;fill-rule:nonzero;fill:#590072;fill-opacity:1;" d="M 27.953125 267.460938 L 67.820312 267.195312 L 67.820312 252.523438 L 42.683594 252.523438 L 42.683594 232.675781 L 81.15625 232.675781 L 81.15625 391.488281 L 42.683594 391.488281 L 42.683594 371.640625 L 67.820312 371.640625 L 67.820312 356.96875 L 27.953125 356.714844 L 27.953125 406.171875 L 95.898438 406.171875 L 95.898438 218.003906 L 27.953125 218.003906 L 27.953125 267.460938 "/><path style=" stroke:none;fill-rule:nonzero;fill:#590072;fill-opacity:1;" d="M 67.925781 371.835938 L 28.054688 371.574219 L 28.054688 356.898438 L 53.207031 356.898438 L 53.207031 337.109375 L 53.195312 337.109375 L 53.195312 337.054688 L 14.722656 337.054688 L 14.722656 495.867188 L 53.195312 495.867188 L 53.195312 495.820312 L 53.207031 495.820312 L 53.207031 476.019531 L 28.054688 476.019531 L 28.054688 461.347656 L 67.925781 461.09375 L 67.925781 510.550781 L 0.00390625 510.550781 L 0.00390625 322.378906 L 67.925781 322.378906 L 67.925781 371.835938 "/><path style=" stroke:none;fill-rule:nonzero;fill:#590072;fill-opacity:1;" d="M 67.925781 163.082031 L 28.054688 162.816406 L 28.054688 148.144531 L 53.207031 148.144531 L 53.207031 128.355469 L 53.195312 128.355469 L 53.195312 128.296875 L 14.722656 128.296875 L 14.722656 287.113281 L 53.195312 287.113281 L 53.195312 287.066406 L 53.207031 287.066406 L 53.207031 267.265625 L 28.054688 267.265625 L 28.054688 252.59375 L 67.925781 252.339844 L 67.925781 301.796875 L 0.00390625 301.796875 L 0.00390625 113.625 L 67.925781 113.625 L 67.925781 163.082031 "/><path style=" stroke:none;fill-rule:nonzero;fill:#590072;fill-opacity:1;" d="M 27.953125 58.671875 L 67.820312 58.40625 L 67.820312 43.734375 L 42.683594 43.734375 L 42.683594 23.886719 L 81.15625 23.886719 L 81.15625 182.699219 L 42.683594 182.699219 L 42.683594 162.851562 L 67.820312 162.851562 L 67.820312 148.179688 L 27.953125 147.925781 L 27.953125 197.382812 L 95.898438 197.382812 L 95.898438 9.214844 L 27.953125 9.214844 L 27.953125 58.671875 "/><path style=" stroke:none;fill-rule:nonzero;fill:#590072;fill-opacity:1;" d="M 28.054688 58.472656 L 53.207031 58.472656 L 53.207031 78.277344 L 53.195312 78.277344 L 53.195312 78.320312 L 14.722656 78.320312 L 14.722656 -0.0078125 L 0.00390625 -0.0078125 L 0.00390625 93.003906 L 67.925781 93.003906 L 67.925781 43.546875 L 28.054688 43.800781 L 28.054688 58.472656 "/></g></svg>